<svg width="147" height="168" viewBox="0 0 147 168" fill="none" xmlns="http://www.w3.org/2000/svg">
<path d="M147 84.015C147 74.248 134.805 64.9919 116.108 59.2519C120.423 40.1386 118.505 24.9321 110.055 20.0636C108.108 18.9216 105.83 18.3807 103.343 18.3807V25.0824C104.722 25.0824 105.83 25.3529 106.759 25.8637C110.834 28.2078 112.602 37.1334 111.224 48.6134C110.894 51.4383 110.355 54.4135 109.696 57.4488C103.823 56.0062 97.4107 54.8943 90.669 54.173C86.6239 48.6134 82.4291 43.5646 78.2042 39.1469C87.9723 30.041 97.1411 25.0523 103.373 25.0523V18.3507C95.1335 18.3507 84.3467 24.2409 73.4401 34.4587C62.5334 24.301 51.7466 18.4709 43.5067 18.4709V25.1725C49.7091 25.1725 58.9079 30.1312 68.6759 39.1769C64.481 43.5946 60.2862 48.6134 56.3011 54.173C49.5294 54.8943 43.1172 56.0062 37.2444 57.4788C36.5552 54.4736 36.0459 51.5585 35.6863 48.7636C34.278 37.2836 36.0159 28.3581 40.0609 25.984C40.9598 25.443 42.1284 25.2026 43.5067 25.2026V18.5009C40.9898 18.5009 38.7126 19.0419 36.735 20.1838C28.3153 25.0523 26.4276 40.2288 30.7723 59.2819C12.1351 65.052 0 74.2781 0 84.015C0 93.782 12.1951 103.038 30.8922 108.778C26.5775 127.891 28.4951 143.098 36.9448 147.966C38.8924 149.108 41.1696 149.649 43.6865 149.649C51.9264 149.649 62.7132 143.759 73.6199 133.541C84.5265 143.699 95.3133 149.529 103.553 149.529C106.07 149.529 108.347 148.988 110.325 147.846C118.745 142.978 120.632 127.801 116.288 108.748C134.865 103.008 147 93.752 147 84.015ZM107.988 63.9701C106.879 67.8469 105.501 71.8438 103.943 75.8408C102.714 73.4366 101.426 71.0324 100.018 68.6282C98.6392 66.224 97.171 63.88 95.7028 61.596C99.9576 62.2271 104.063 63.0084 107.988 63.9701ZM94.2646 95.9759C91.9274 100.033 89.5304 103.88 87.0434 107.456C82.5789 107.847 78.0544 108.057 73.5 108.057C68.9755 108.057 64.4511 107.847 60.0165 107.486C57.5296 103.91 55.1025 100.093 52.7654 96.066C50.4882 92.1292 48.4207 88.1322 46.533 84.1052C48.3907 80.0782 50.4882 76.0512 52.7354 72.1143C55.0726 68.0572 57.4696 64.2105 59.9566 60.6343C64.4211 60.2436 68.9456 60.0333 73.5 60.0333C78.0245 60.0333 82.5489 60.2436 86.9835 60.6043C89.4704 64.1805 91.8975 67.9971 94.2346 72.0241C96.5118 75.961 98.5793 79.958 100.467 83.985C98.5793 88.012 96.5118 92.039 94.2646 95.9759ZM103.943 92.069C105.561 96.0961 106.939 100.123 108.078 104.03C104.152 104.992 100.018 105.803 95.7328 106.434C97.201 104.12 98.6692 101.746 100.048 99.3117C101.426 96.9075 102.714 94.4732 103.943 92.069ZM73.5599 124.135C70.7733 121.25 67.9868 118.034 65.2301 114.518C67.9268 114.638 70.6835 114.729 73.47 114.729C76.2866 114.729 79.0732 114.668 81.7998 114.518C79.1031 118.034 76.3166 121.25 73.5599 124.135ZM51.2672 106.434C47.0124 105.803 42.9075 105.022 38.9823 104.06C40.0909 100.183 41.4692 96.1862 43.0273 92.1893C44.2558 94.5935 45.5442 96.9976 46.9525 99.4018C48.3608 101.806 49.799 104.15 51.2672 106.434ZM73.4101 43.8951C76.1967 46.7802 78.9833 49.9958 81.7399 53.5119C79.0432 53.3917 76.2866 53.3015 73.5 53.3015C70.6835 53.3015 67.8969 53.3616 65.1702 53.5119C67.8669 49.9958 70.6535 46.7802 73.4101 43.8951ZM51.2373 61.596C49.7691 63.91 48.3009 66.2841 46.9225 68.7184C45.5442 71.1226 44.2558 73.5268 43.0273 75.9309C41.4093 71.9039 40.031 67.8769 38.8924 63.9701C42.8176 63.0385 46.9525 62.2271 51.2373 61.596ZM24.1205 99.2215C13.5135 94.6836 6.65185 88.7332 6.65185 84.015C6.65185 79.2968 13.5135 73.3164 24.1205 68.8085C26.6973 67.6966 29.5139 66.7049 32.4203 65.7733C34.1282 71.6635 36.3755 77.7942 39.162 84.0751C36.4054 90.326 34.1881 96.4266 32.5102 102.287C29.5438 101.355 26.7273 100.333 24.1205 99.2215ZM40.2407 142.166C36.1657 139.822 34.3979 130.897 35.7762 119.417C36.1058 116.592 36.6451 113.617 37.3043 110.581C43.1771 112.024 49.5893 113.136 56.331 113.857C60.3761 119.417 64.5709 124.465 68.7958 128.883C59.0277 137.989 49.8589 142.978 43.6266 142.978C42.2782 142.948 41.1396 142.677 40.2407 142.166ZM111.314 119.266C112.722 130.746 110.984 139.672 106.939 142.046C106.04 142.587 104.872 142.827 103.493 142.827C97.2909 142.827 88.0921 137.869 78.3241 128.823C82.519 124.405 86.7138 119.387 90.6989 113.827C97.4707 113.106 103.883 111.994 109.756 110.521C110.445 113.556 110.984 116.472 111.314 119.266ZM122.85 99.2215C120.273 100.333 117.456 101.325 114.55 102.257C112.842 96.3665 110.595 90.2359 107.808 83.9549C110.565 77.704 112.782 71.6034 114.46 65.7432C117.426 66.6748 120.243 67.6966 122.88 68.8085C133.487 73.3464 140.348 79.2968 140.348 84.015C140.318 88.7332 133.457 94.7137 122.85 99.2215Z" fill="#61DAFB"/>
<path d="M73.4701 97.749C81.0326 97.749 87.1633 91.6001 87.1633 84.015C87.1633 76.43 81.0326 70.2811 73.4701 70.2811C65.9075 70.2811 59.7769 76.43 59.7769 84.015C59.7769 91.6001 65.9075 97.749 73.4701 97.749Z" fill="#61DAFB"/>
</svg>
