<svg width="167" height="126" viewBox="0 0 167 126" fill="none" xmlns="http://www.w3.org/2000/svg">
<g clip-path="url(#clip0_435_655)">
<path d="M143.711 72.3844C137.873 72.4175 132.817 73.8281 128.577 75.9285C127.011 72.8113 125.446 70.0875 125.185 68.0535C124.891 65.691 124.533 64.2469 124.891 61.4253C125.25 58.6031 126.881 54.6 126.881 54.2719C126.848 53.9766 126.522 52.5328 123.162 52.5C119.803 52.4672 116.9 53.1562 116.574 54.0422C116.248 54.9281 115.595 56.9625 115.171 59.0625C114.584 62.1469 108.452 73.0734 104.962 78.8156C103.82 76.5844 102.842 74.6156 102.646 73.0403C102.353 70.6781 101.994 69.234 102.353 66.4125C102.711 63.5903 104.342 59.5875 104.342 59.2594C104.31 58.9641 103.983 57.5203 100.624 57.4875C97.2643 57.4547 94.3617 58.1437 94.0356 59.0297C93.7094 59.9156 93.3506 62.0156 92.633 64.05C91.9477 66.0844 83.7934 84.3281 81.6733 89.0859C80.597 91.5141 79.6514 93.45 78.9661 94.7625C78.2811 96.075 78.9335 94.8609 78.8683 94.9922C78.2811 96.1078 77.955 96.7312 77.955 96.7312V96.7644C77.4983 97.5847 77.0091 98.3719 76.7804 98.3719C76.6173 98.3719 76.2912 96.1734 76.8457 93.155C78.0525 86.8219 80.988 76.9456 80.9557 76.5847C80.9557 76.4206 81.5099 74.6812 79.0636 73.7956C76.6826 72.9097 75.8349 74.3863 75.6388 74.3863C75.4431 74.3863 75.28 74.9113 75.28 74.9113C75.28 74.9113 77.922 63.7882 70.2244 63.7882C65.397 63.7882 58.7431 69.071 55.4488 73.8944C53.3613 75.0428 48.9253 77.4706 44.2285 80.0632C42.4345 81.0475 40.5753 82.0975 38.814 83.0491L38.4556 82.6547C29.127 72.6469 11.8725 65.5594 12.5901 52.1062C12.8511 47.2172 14.5472 34.3219 45.7295 18.7031C71.2688 5.90625 91.7198 9.41719 95.2747 17.2266C100.33 28.3828 84.3479 49.1203 57.7979 52.1062C47.6865 53.2547 42.3696 49.3172 41.0326 47.8406C39.6301 46.2984 39.4344 46.2328 38.9125 46.5281C38.0645 46.9875 38.5863 48.3656 38.9125 49.1859C39.6953 51.2531 42.9571 54.9281 48.502 56.7656C53.3616 58.3734 65.2346 59.2594 79.5862 53.6812C95.6664 47.4141 108.224 30.0234 104.538 15.4875C100.787 0.689063 76.3897 -4.16719 53.3293 4.06875C39.5972 8.99062 24.7237 16.6687 14.0253 26.7422C1.30457 38.6859 -0.717693 49.1203 0.130354 53.4516C3.09884 68.9062 24.2671 78.9797 32.7475 86.4281C32.3235 86.6575 31.9321 86.8872 31.5733 87.0844C27.3331 89.184 11.1876 97.6828 7.14305 106.673C2.57664 116.845 7.86063 124.162 11.3833 125.147C22.2774 128.198 33.4325 122.719 39.4667 113.695C45.4679 104.672 44.7507 92.9578 41.9782 87.6094L41.88 87.4125L45.207 85.4437C47.36 84.1641 49.4802 82.9828 51.339 81.9653C50.2956 84.82 49.5451 88.1997 49.154 93.1216C48.6973 98.8969 51.0458 106.378 54.1444 109.331C55.5143 110.61 57.1452 110.643 58.1563 110.643C61.7442 110.643 63.3751 107.657 65.169 104.081C67.387 99.7169 69.344 94.6637 69.344 94.6637C69.344 94.6637 66.8977 108.347 73.5843 108.347C76.0306 108.347 78.4768 105.164 79.5858 103.523V103.556C79.5858 103.556 79.6511 103.457 79.7815 103.228C79.9184 103.024 80.0489 102.816 80.1729 102.605V102.539C81.1515 100.833 83.3368 96.9281 86.5985 90.4641C90.8058 82.1297 94.8507 71.6953 94.8507 71.6953C94.8507 71.6953 95.2421 74.2547 96.4489 78.4547C97.1662 80.9488 98.7318 83.6719 99.9386 86.3297C98.9601 87.7078 98.373 88.4956 98.373 88.4956L98.4056 88.5285C97.6231 89.5785 96.7421 90.6944 95.8292 91.8097C92.5022 95.8128 88.5229 100.374 88.0011 101.687C87.3813 103.228 87.5118 104.377 88.7186 105.296C89.5993 105.952 91.1649 106.083 92.8284 105.952C95.8292 105.755 97.9167 105.001 98.9604 104.541C100.591 103.95 102.45 103.064 104.244 101.752C107.506 99.3241 109.496 95.8788 109.3 91.285C109.202 88.7585 108.387 86.2647 107.376 83.9022C107.669 83.4757 107.963 83.0488 108.256 82.5897C113.41 75.0097 117.389 66.6757 117.389 66.6757C117.389 66.6757 117.781 69.235 118.987 73.435C119.607 75.5678 120.847 77.8979 121.956 80.1947C117.128 84.165 114.095 88.7588 113.051 91.7775C111.127 97.3557 112.627 99.8822 115.465 100.473C116.736 100.735 118.563 100.145 119.933 99.5541C121.629 98.9963 123.684 98.0444 125.576 96.6338C128.838 94.2057 131.969 90.826 131.806 86.2651C131.708 84.1651 131.154 82.0979 130.403 80.1291C134.513 78.4229 139.829 77.4385 146.582 78.2588C161.096 79.965 163.967 89.0869 163.412 92.8932C162.858 96.6998 159.824 98.7994 158.813 99.4557C157.802 100.079 157.476 100.309 157.574 100.768C157.704 101.458 158.161 101.424 159.041 101.294C160.248 101.096 166.674 98.1763 166.935 91.1548C167.326 82.13 158.813 72.2863 143.711 72.3844ZM31.769 110.348C26.9743 115.631 20.2225 117.633 17.3522 115.927C14.2536 114.122 15.4601 106.345 21.3641 100.734C24.952 97.3219 29.6163 94.1719 32.6823 92.2359C33.3673 91.8094 34.411 91.1863 35.6505 90.4313C35.8462 90.3003 35.9766 90.2344 35.9766 90.2344C36.205 90.1031 36.4659 89.9391 36.7268 89.775C38.9122 97.7813 36.8247 104.803 31.769 110.348ZM66.8325 86.3625C65.169 90.4641 61.6464 100.997 59.5263 100.406C57.6994 99.9141 56.5907 91.9406 59.1671 84.0656C60.4718 80.095 63.2443 75.3703 64.8752 73.5325C67.5175 70.5794 70.3875 69.595 71.1054 70.809C71.9534 72.3844 67.8763 83.8031 66.8325 86.3625ZM95.764 100.275C95.0464 100.636 94.394 100.898 94.1005 100.702C93.8722 100.571 94.3937 100.078 94.3937 100.078C94.3937 100.078 98.0142 96.1738 99.4494 94.3691C100.265 93.3194 101.243 92.1053 102.287 90.7269V91.1206C102.287 95.8453 97.7862 98.9953 95.764 100.275ZM118.074 95.1563C117.552 94.7625 117.617 93.5484 119.378 89.7422C120.064 88.2328 121.629 85.7062 124.336 83.3109C124.662 84.2953 124.858 85.2465 124.826 86.1328C124.793 92.0391 120.618 94.2375 118.074 95.1563Z" fill="#CF649A"/>
</g>
<defs>
<clipPath id="clip0_435_655">
<rect width="167" height="126" fill="white"/>
</clipPath>
</defs>
</svg>
